<svg xmlns="http://www.w3.org/2000/svg" xmlns:xlink="http://www.w3.org/1999/xlink" width="180" zoomAndPan="magnify" viewBox="0 0 135 30.000001" height="40" preserveAspectRatio="xMidYMid meet" version="1.0"><defs><g/><clipPath id="3fc1f94d76"><path d="M 7.328125 4.511719 L 28.375 4.511719 L 28.375 26 L 7.328125 26 Z M 7.328125 4.511719 " clip-rule="nonzero"/></clipPath></defs><g clip-path="url(#3fc1f94d76)"><path fill="#ffffff" d="M 18.210938 25.046875 C 19.21875 25.066406 20.175781 24.808594 21.128906 24.519531 C 21.222656 24.761719 21.320312 25.003906 21.421875 25.253906 C 19.003906 26.101562 16.585938 26.082031 14.171875 25.242188 C 14.183594 25.203125 14.191406 25.167969 14.203125 25.132812 C 14.28125 24.921875 14.347656 24.714844 14.429688 24.492188 C 15.390625 24.789062 16.351562 25.039062 17.371094 25.050781 C 17.371094 25.019531 17.371094 24.984375 17.371094 24.957031 C 17.371094 24.496094 17.371094 24.03125 17.367188 23.570312 C 17.367188 23.394531 17.277344 23.300781 17.101562 23.273438 C 16.722656 23.21875 16.335938 23.175781 15.964844 23.097656 C 14.515625 22.757812 13.242188 22.085938 12.167969 21.066406 C 11.734375 20.660156 11.367188 20.199219 11.011719 19.730469 C 10.996094 19.710938 10.976562 19.691406 10.957031 19.664062 C 10.785156 19.757812 10.617188 19.855469 10.449219 19.949219 C 10.199219 20.085938 9.953125 20.226562 9.703125 20.363281 C 9.535156 20.457031 9.515625 20.539062 9.644531 20.695312 C 10.128906 21.28125 10.617188 21.871094 11.097656 22.460938 C 11.199219 22.582031 11.292969 22.703125 11.402344 22.824219 C 11.253906 23 11.113281 23.175781 10.957031 23.359375 C 10.152344 22.664062 9.445312 21.878906 8.871094 20.992188 C 8.09375 19.792969 7.597656 18.488281 7.328125 17.078125 C 7.566406 17.03125 7.796875 16.984375 8.039062 16.9375 C 8.363281 17.898438 8.695312 18.851562 9.019531 19.820312 C 9.527344 19.535156 10.027344 19.25 10.535156 18.96875 C 10.46875 18.804688 10.402344 18.640625 10.332031 18.488281 C 10.070312 17.863281 9.859375 17.226562 9.738281 16.566406 C 9.609375 15.855469 9.582031 15.144531 9.644531 14.425781 C 9.695312 13.753906 9.824219 13.09375 10.035156 12.449219 C 10.125 12.183594 10.238281 11.933594 10.332031 11.671875 C 10.355469 11.609375 10.359375 11.542969 10.359375 11.480469 C 10.359375 11.398438 10.3125 11.339844 10.238281 11.296875 C 9.859375 11.089844 9.488281 10.878906 9.09375 10.65625 C 9.019531 10.804688 8.9375 10.945312 8.871094 11.09375 C 8.511719 11.839844 8.28125 12.617188 8.121094 13.425781 C 8.105469 13.503906 8.058594 13.519531 8 13.503906 C 7.855469 13.472656 7.714844 13.445312 7.570312 13.398438 C 7.417969 13.34375 7.355469 13.253906 7.390625 13.09375 C 7.457031 12.78125 7.523438 12.460938 7.613281 12.160156 C 8.09375 10.519531 8.9375 9.09375 10.128906 7.867188 C 10.355469 7.636719 10.597656 7.414062 10.835938 7.191406 C 10.855469 7.167969 10.875 7.15625 10.894531 7.144531 C 10.941406 7.117188 10.984375 7.117188 11.023438 7.167969 C 11.144531 7.324219 11.28125 7.472656 11.417969 7.628906 C 10.765625 8.386719 10.101562 9.144531 9.441406 9.90625 C 9.914062 10.183594 10.375 10.453125 10.847656 10.730469 C 12.398438 8.402344 14.597656 7.183594 17.359375 6.914062 C 17.359375 6.410156 17.359375 5.910156 17.359375 5.402344 C 16.351562 5.402344 15.390625 5.652344 14.429688 5.964844 C 14.355469 5.769531 14.28125 5.578125 14.21875 5.382812 C 14.191406 5.296875 14.300781 5.171875 14.40625 5.144531 C 14.8125 5.050781 15.214844 4.941406 15.621094 4.863281 C 16.074219 4.765625 16.535156 4.679688 16.988281 4.613281 C 17.480469 4.535156 17.980469 4.542969 18.476562 4.585938 C 19.242188 4.644531 20 4.78125 20.738281 4.984375 C 20.980469 5.050781 21.21875 5.125 21.460938 5.207031 C 21.367188 5.457031 21.269531 5.699219 21.167969 5.953125 C 20.207031 5.652344 19.242188 5.402344 18.21875 5.402344 C 18.21875 5.429688 18.210938 5.457031 18.210938 5.476562 C 18.210938 5.925781 18.210938 6.378906 18.210938 6.824219 C 18.210938 6.890625 18.230469 6.914062 18.292969 6.917969 C 19.964844 7.082031 21.507812 7.597656 22.847656 8.640625 C 23.59375 9.214844 24.214844 9.90625 24.742188 10.683594 C 24.757812 10.703125 24.769531 10.714844 24.785156 10.738281 C 24.796875 10.738281 24.804688 10.730469 24.8125 10.730469 C 25.191406 10.511719 25.5625 10.296875 25.941406 10.082031 C 26.003906 10.046875 26.015625 10.007812 26.015625 9.945312 C 26.007812 9.851562 25.976562 9.761719 25.914062 9.679688 C 25.40625 8.96875 24.851562 8.300781 24.285156 7.644531 C 24.242188 7.597656 24.242188 7.5625 24.277344 7.515625 C 24.378906 7.371094 24.472656 7.230469 24.582031 7.082031 C 25.570312 7.804688 26.3125 8.738281 26.929688 9.769531 C 27.59375 10.878906 28.082031 12.058594 28.261719 13.363281 C 28.011719 13.402344 27.769531 13.4375 27.511719 13.476562 C 27.300781 12.503906 27.011719 11.554688 26.523438 10.675781 C 26.496094 10.691406 26.476562 10.695312 26.457031 10.710938 C 26.078125 10.925781 25.703125 11.144531 25.324219 11.359375 C 25.269531 11.394531 25.257812 11.421875 25.277344 11.480469 C 25.441406 12.050781 25.609375 12.613281 25.757812 13.179688 C 25.960938 13.953125 26.035156 14.738281 26.007812 15.535156 C 25.96875 16.605469 25.710938 17.628906 25.246094 18.59375 C 25.210938 18.664062 25.191406 18.730469 25.171875 18.796875 C 25.136719 18.90625 25.175781 18.988281 25.257812 19.054688 C 25.292969 19.082031 25.324219 19.101562 25.359375 19.125 C 25.730469 19.332031 26.109375 19.542969 26.484375 19.753906 C 26.496094 19.757812 26.511719 19.765625 26.539062 19.78125 C 27.011719 18.90625 27.316406 17.972656 27.511719 16.992188 C 27.753906 17.023438 28 17.066406 28.25 17.097656 C 28.234375 17.226562 28.222656 17.351562 28.203125 17.476562 C 28.066406 18.304688 27.78125 19.074219 27.417969 19.820312 C 26.867188 20.949219 26.152344 21.964844 25.25 22.847656 C 25.0625 23.035156 24.859375 23.203125 24.65625 23.394531 C 24.5 23.210938 24.351562 23.035156 24.195312 22.859375 C 24.332031 22.703125 24.460938 22.546875 24.585938 22.390625 C 25.042969 21.851562 25.496094 21.300781 25.949219 20.761719 C 26.132812 20.542969 26.109375 20.464844 25.859375 20.328125 C 25.542969 20.152344 25.230469 19.96875 24.917969 19.785156 C 24.898438 19.773438 24.878906 19.757812 24.859375 19.753906 C 24.722656 19.679688 24.640625 19.699219 24.546875 19.820312 C 24.4375 19.960938 24.335938 20.109375 24.222656 20.253906 C 23.242188 21.492188 21.988281 22.351562 20.507812 22.878906 C 19.878906 23.101562 19.21875 23.238281 18.550781 23.273438 C 18.488281 23.277344 18.429688 23.285156 18.367188 23.300781 C 18.257812 23.320312 18.21875 23.367188 18.210938 23.476562 C 18.207031 23.535156 18.199219 23.597656 18.199219 23.652344 C 18.199219 24.105469 18.199219 24.550781 18.199219 25.003906 C 18.207031 25.003906 18.207031 25.019531 18.210938 25.046875 Z M 25.171875 15.222656 C 25.175781 15.210938 25.175781 15.203125 25.175781 15.199219 C 25.175781 15.171875 25.175781 15.148438 25.175781 15.121094 C 25.183594 14.5 25.109375 13.882812 24.953125 13.273438 C 24.601562 11.921875 23.9375 10.75 22.917969 9.789062 C 22.117188 9.039062 21.191406 8.496094 20.160156 8.117188 C 18.914062 7.65625 17.648438 7.554688 16.351562 7.855469 C 15.476562 8.050781 14.679688 8.410156 13.921875 8.882812 C 12.464844 9.78125 11.429688 11.027344 10.875 12.660156 C 10.605469 13.457031 10.46875 14.289062 10.429688 15.128906 C 10.429688 15.164062 10.429688 15.191406 10.429688 15.222656 C 15.347656 15.222656 20.257812 15.222656 25.171875 15.222656 Z M 16.269531 16.105469 C 16.261719 16.21875 16.253906 16.328125 16.253906 16.4375 C 16.253906 18.136719 16.253906 19.839844 16.253906 21.539062 C 16.253906 21.722656 16.25 21.90625 16.253906 22.085938 C 16.261719 22.257812 16.324219 22.3125 16.492188 22.34375 C 17.195312 22.464844 17.90625 22.507812 18.617188 22.425781 C 18.789062 22.40625 18.949219 22.378906 19.113281 22.34375 C 19.242188 22.316406 19.308594 22.230469 19.328125 22.101562 C 19.335938 22.0625 19.335938 22.011719 19.335938 21.972656 C 19.335938 21.574219 19.335938 21.175781 19.335938 20.773438 C 19.335938 19.347656 19.335938 17.917969 19.335938 16.488281 C 19.335938 16.363281 19.320312 16.234375 19.316406 16.105469 C 18.285156 16.105469 17.285156 16.105469 16.269531 16.105469 Z M 20.128906 22.074219 C 20.25 22.035156 20.363281 22.011719 20.460938 21.960938 C 21 21.675781 21.542969 21.382812 22.078125 21.085938 C 22.207031 21.019531 22.28125 20.902344 22.285156 20.753906 C 22.292969 20.667969 22.292969 20.585938 22.292969 20.496094 C 22.292969 19.960938 22.292969 19.433594 22.292969 18.898438 C 22.292969 18.066406 22.292969 17.234375 22.292969 16.402344 C 22.292969 16.308594 22.285156 16.207031 22.28125 16.105469 C 21.5625 16.105469 20.84375 16.105469 20.128906 16.105469 C 20.128906 18.085938 20.128906 20.070312 20.128906 22.074219 Z M 13.269531 16.109375 C 13.269531 16.152344 13.269531 16.179688 13.269531 16.207031 C 13.269531 17.484375 13.269531 18.769531 13.269531 20.050781 C 13.269531 20.199219 13.277344 20.339844 13.285156 20.492188 C 13.296875 20.789062 13.414062 21.023438 13.671875 21.179688 C 13.710938 21.207031 13.75 21.234375 13.792969 21.261719 C 14.304688 21.574219 14.863281 21.816406 15.410156 22.066406 C 15.417969 22.074219 15.429688 22.066406 15.4375 22.066406 C 15.4375 20.078125 15.4375 18.09375 15.4375 16.109375 C 14.71875 16.109375 14 16.109375 13.269531 16.109375 Z M 23.09375 20.109375 C 23.140625 20.078125 23.179688 20.050781 23.214844 20.023438 C 23.34375 19.894531 23.476562 19.773438 23.59375 19.636719 C 24.214844 18.851562 24.648438 17.964844 24.941406 17.003906 C 25.019531 16.742188 25.082031 16.46875 25.054688 16.191406 C 25.046875 16.125 25.027344 16.105469 24.960938 16.105469 C 24.363281 16.105469 23.769531 16.105469 23.171875 16.105469 C 23.144531 16.105469 23.117188 16.105469 23.09375 16.109375 C 23.09375 17.4375 23.09375 18.765625 23.09375 20.109375 Z M 12.457031 20.007812 C 12.457031 18.695312 12.457031 17.402344 12.457031 16.105469 C 11.816406 16.105469 11.171875 16.105469 10.53125 16.105469 C 10.761719 17.605469 11.367188 18.914062 12.457031 20.007812 Z M 12.507812 13.003906 C 12.574219 13.34375 12.777344 13.546875 13.113281 13.613281 C 13.589844 13.707031 14.054688 13.707031 14.523438 13.585938 C 15.308594 13.382812 15.898438 12.902344 16.324219 12.234375 C 16.613281 11.773438 16.683594 11.265625 16.546875 10.738281 C 16.355469 10.007812 15.734375 9.519531 14.988281 9.539062 C 14.414062 9.550781 13.894531 9.742188 13.445312 10.113281 C 12.757812 10.691406 12.453125 11.453125 12.425781 12.429688 C 12.445312 12.5625 12.464844 12.789062 12.507812 13.003906 Z M 22.179688 13.679688 C 22.691406 13.652344 23.03125 13.371094 23.160156 12.867188 C 23.234375 12.558594 23.21875 12.246094 23.171875 11.929688 C 23.058594 11.148438 22.714844 10.511719 22.070312 10.046875 C 21.636719 9.726562 21.175781 9.511719 20.628906 9.53125 C 20.261719 9.546875 19.925781 9.632812 19.648438 9.878906 C 19.078125 10.378906 18.921875 11.015625 19.09375 11.738281 C 19.199219 12.183594 19.484375 12.53125 19.800781 12.84375 C 20.40625 13.429688 21.144531 13.667969 21.96875 13.679688 C 22.035156 13.679688 22.109375 13.679688 22.179688 13.679688 Z M 17.785156 14.539062 C 18.238281 14.535156 18.609375 14.160156 18.605469 13.722656 C 18.605469 13.300781 18.183594 12.882812 17.773438 12.890625 C 17.339844 12.894531 16.945312 13.296875 16.945312 13.722656 C 16.960938 14.195312 17.3125 14.546875 17.785156 14.539062 Z M 17.785156 14.539062 " fill-opacity="1" fill-rule="nonzero"/></g><g fill="#ffffff" fill-opacity="1"><g transform="translate(31.402456, 21.126758)"><g><path d="M 10.828125 -5.671875 C 10.785156 -5.503906 10.753906 -5.332031 10.734375 -5.15625 C 10.722656 -4.988281 10.710938 -4.800781 10.703125 -4.59375 C 10.703125 -4.382812 10.695312 -4.148438 10.6875 -3.890625 C 10.6875 -3.628906 10.6875 -3.335938 10.6875 -3.015625 C 10.6875 -2.328125 10.6875 -1.757812 10.6875 -1.3125 C 10.695312 -0.875 10.710938 -0.4375 10.734375 0 L 9.921875 0.21875 L 9.28125 -0.84375 C 8.8125 -0.539062 8.242188 -0.285156 7.578125 -0.078125 C 6.910156 0.117188 6.234375 0.21875 5.546875 0.21875 C 4.929688 0.21875 4.332031 0.140625 3.75 -0.015625 C 3.164062 -0.171875 2.648438 -0.460938 2.203125 -0.890625 C 1.753906 -1.316406 1.394531 -1.910156 1.125 -2.671875 C 0.851562 -3.441406 0.71875 -4.4375 0.71875 -5.65625 C 0.71875 -7.976562 1.203125 -9.707031 2.171875 -10.84375 C 3.148438 -11.976562 4.550781 -12.546875 6.375 -12.546875 C 6.65625 -12.546875 6.914062 -12.535156 7.15625 -12.515625 C 7.394531 -12.492188 7.613281 -12.46875 7.8125 -12.4375 C 8.007812 -12.414062 8.203125 -12.394531 8.390625 -12.375 C 8.578125 -12.351562 8.765625 -12.34375 8.953125 -12.34375 C 9.140625 -12.34375 9.332031 -12.351562 9.53125 -12.375 C 9.726562 -12.40625 9.945312 -12.457031 10.1875 -12.53125 L 10.375 -8.484375 L 8.421875 -8.25 C 8.429688 -8.332031 8.4375 -8.410156 8.4375 -8.484375 C 8.4375 -8.554688 8.4375 -8.632812 8.4375 -8.71875 C 8.4375 -9.03125 8.40625 -9.328125 8.34375 -9.609375 C 8.289062 -9.890625 8.1875 -10.140625 8.03125 -10.359375 C 7.882812 -10.578125 7.675781 -10.75 7.40625 -10.875 C 7.132812 -11 6.789062 -11.0625 6.375 -11.0625 C 4.144531 -11.0625 3.03125 -9.425781 3.03125 -6.15625 C 3.03125 -5.363281 3.097656 -4.691406 3.234375 -4.140625 C 3.367188 -3.585938 3.566406 -3.132812 3.828125 -2.78125 C 4.097656 -2.425781 4.425781 -2.164062 4.8125 -2 C 5.207031 -1.84375 5.660156 -1.765625 6.171875 -1.765625 C 6.585938 -1.765625 6.988281 -1.820312 7.375 -1.9375 C 7.757812 -2.050781 8.140625 -2.210938 8.515625 -2.421875 L 8.515625 -4.171875 L 6.359375 -4.078125 L 6.203125 -5.671875 Z M 10.828125 -5.671875 "/></g></g></g><g fill="#ffffff" fill-opacity="1"><g transform="translate(42.984302, 21.126758)"><g><path d="M 2.4375 -9.125 C 2.675781 -8.738281 2.863281 -8.398438 3 -8.109375 C 3.144531 -7.828125 3.25 -7.523438 3.3125 -7.203125 C 3.425781 -7.378906 3.570312 -7.570312 3.75 -7.78125 C 3.925781 -7.988281 4.125 -8.179688 4.34375 -8.359375 C 4.570312 -8.546875 4.820312 -8.707031 5.09375 -8.84375 C 5.363281 -8.988281 5.648438 -9.082031 5.953125 -9.125 L 6.109375 -6.625 C 5.535156 -6.625 5 -6.570312 4.5 -6.46875 C 4.007812 -6.375 3.660156 -6.207031 3.453125 -5.96875 C 3.460938 -5.75 3.46875 -5.503906 3.46875 -5.234375 C 3.46875 -4.972656 3.46875 -4.679688 3.46875 -4.359375 C 3.46875 -3.984375 3.472656 -3.578125 3.484375 -3.140625 C 3.492188 -2.710938 3.507812 -2.300781 3.53125 -1.90625 C 3.550781 -1.519531 3.570312 -1.15625 3.59375 -0.8125 C 3.613281 -0.46875 3.640625 -0.195312 3.671875 0 L 1.1875 0 C 1.195312 -0.25 1.207031 -0.535156 1.21875 -0.859375 C 1.226562 -1.191406 1.238281 -1.535156 1.25 -1.890625 C 1.257812 -2.242188 1.265625 -2.601562 1.265625 -2.96875 C 1.273438 -3.34375 1.28125 -3.695312 1.28125 -4.03125 C 1.28125 -4.570312 1.269531 -5.015625 1.25 -5.359375 C 1.226562 -5.710938 1.179688 -6.015625 1.109375 -6.265625 C 1.035156 -6.515625 0.941406 -6.742188 0.828125 -6.953125 C 0.710938 -7.171875 0.5625 -7.421875 0.375 -7.703125 Z M 2.4375 -9.125 "/></g></g></g><g fill="#ffffff" fill-opacity="1"><g transform="translate(49.383406, 21.126758)"><g><path d="M 2.90625 0.21875 C 2.164062 0.21875 1.566406 -0.03125 1.109375 -0.53125 C 0.660156 -1.039062 0.4375 -1.703125 0.4375 -2.515625 C 0.4375 -3.367188 0.679688 -4.046875 1.171875 -4.546875 C 1.671875 -5.054688 2.332031 -5.3125 3.15625 -5.3125 C 3.5 -5.3125 3.835938 -5.257812 4.171875 -5.15625 C 4.515625 -5.0625 4.820312 -4.929688 5.09375 -4.765625 L 5.09375 -5.75 C 5.09375 -6.300781 4.984375 -6.6875 4.765625 -6.90625 C 4.554688 -7.132812 4.195312 -7.25 3.6875 -7.25 C 3.332031 -7.25 2.957031 -7.203125 2.5625 -7.109375 C 2.164062 -7.023438 1.851562 -6.914062 1.625 -6.78125 L 1.078125 -8.484375 C 1.253906 -8.546875 1.460938 -8.613281 1.703125 -8.6875 C 1.953125 -8.757812 2.21875 -8.816406 2.5 -8.859375 C 2.78125 -8.910156 3.066406 -8.953125 3.359375 -8.984375 C 3.660156 -9.015625 3.929688 -9.03125 4.171875 -9.03125 C 6.242188 -9.03125 7.28125 -8.019531 7.28125 -6 C 7.28125 -5.820312 7.269531 -5.5625 7.25 -5.21875 C 7.226562 -4.875 7.207031 -4.515625 7.1875 -4.140625 C 7.175781 -3.773438 7.160156 -3.429688 7.140625 -3.109375 C 7.128906 -2.796875 7.125 -2.578125 7.125 -2.453125 C 7.125 -2.179688 7.164062 -1.984375 7.25 -1.859375 C 7.332031 -1.742188 7.484375 -1.6875 7.703125 -1.6875 C 7.859375 -1.6875 8.035156 -1.710938 8.234375 -1.765625 L 7.953125 -0.078125 C 7.765625 -0.015625 7.585938 0.03125 7.421875 0.0625 C 7.265625 0.101562 7.101562 0.125 6.9375 0.125 C 6.507812 0.125 6.144531 0.00390625 5.84375 -0.234375 C 5.550781 -0.472656 5.378906 -0.816406 5.328125 -1.265625 C 5.085938 -0.804688 4.753906 -0.441406 4.328125 -0.171875 C 3.910156 0.0859375 3.4375 0.21875 2.90625 0.21875 Z M 3.75 -1.40625 C 4.125 -1.40625 4.441406 -1.539062 4.703125 -1.8125 C 4.972656 -2.082031 5.109375 -2.425781 5.109375 -2.84375 C 5.109375 -3.1875 5.003906 -3.460938 4.796875 -3.671875 C 4.585938 -3.890625 4.289062 -4 3.90625 -4 C 3.519531 -4 3.210938 -3.878906 2.984375 -3.640625 C 2.765625 -3.410156 2.65625 -3.085938 2.65625 -2.671875 C 2.65625 -2.285156 2.753906 -1.976562 2.953125 -1.75 C 3.148438 -1.519531 3.414062 -1.40625 3.75 -1.40625 Z M 3.75 -1.40625 "/></g></g></g><g fill="#ffffff" fill-opacity="1"><g transform="translate(57.880289, 21.126758)"><g><path d="M 2.4375 -9.03125 C 2.664062 -8.6875 2.847656 -8.382812 2.984375 -8.125 C 3.128906 -7.863281 3.238281 -7.597656 3.3125 -7.328125 C 3.488281 -7.515625 3.6875 -7.710938 3.90625 -7.921875 C 4.132812 -8.128906 4.375 -8.3125 4.625 -8.46875 C 4.875 -8.625 5.144531 -8.753906 5.4375 -8.859375 C 5.738281 -8.972656 6.046875 -9.03125 6.359375 -9.03125 C 6.648438 -9.03125 6.929688 -8.972656 7.203125 -8.859375 C 7.484375 -8.753906 7.726562 -8.578125 7.9375 -8.328125 C 8.15625 -8.085938 8.328125 -7.753906 8.453125 -7.328125 C 8.585938 -6.910156 8.65625 -6.382812 8.65625 -5.75 C 8.65625 -5.582031 8.648438 -5.335938 8.640625 -5.015625 C 8.640625 -4.703125 8.628906 -4.363281 8.609375 -4 C 8.597656 -3.644531 8.585938 -3.300781 8.578125 -2.96875 C 8.578125 -2.644531 8.578125 -2.394531 8.578125 -2.21875 C 8.578125 -1.832031 8.601562 -1.457031 8.65625 -1.09375 C 8.707031 -0.738281 8.800781 -0.445312 8.9375 -0.21875 L 6.484375 0.21875 C 6.398438 -0.0507812 6.347656 -0.34375 6.328125 -0.65625 C 6.316406 -0.976562 6.3125 -1.257812 6.3125 -1.5 C 6.3125 -1.820312 6.316406 -2.15625 6.328125 -2.5 C 6.347656 -2.851562 6.367188 -3.191406 6.390625 -3.515625 C 6.410156 -3.835938 6.425781 -4.140625 6.4375 -4.421875 C 6.457031 -4.710938 6.46875 -4.96875 6.46875 -5.1875 C 6.46875 -5.875 6.347656 -6.347656 6.109375 -6.609375 C 5.878906 -6.867188 5.554688 -7 5.140625 -7 C 4.804688 -7 4.492188 -6.945312 4.203125 -6.84375 C 3.910156 -6.738281 3.65625 -6.609375 3.4375 -6.453125 C 3.457031 -6.222656 3.46875 -5.972656 3.46875 -5.703125 C 3.46875 -5.441406 3.46875 -5.132812 3.46875 -4.78125 C 3.46875 -4.238281 3.46875 -3.75 3.46875 -3.3125 C 3.46875 -2.875 3.46875 -2.46875 3.46875 -2.09375 C 3.476562 -1.71875 3.484375 -1.363281 3.484375 -1.03125 C 3.492188 -0.695312 3.507812 -0.351562 3.53125 0 L 1.140625 0 C 1.148438 -0.28125 1.160156 -0.597656 1.171875 -0.953125 C 1.191406 -1.304688 1.207031 -1.675781 1.21875 -2.0625 C 1.238281 -2.457031 1.253906 -2.863281 1.265625 -3.28125 C 1.273438 -3.695312 1.28125 -4.101562 1.28125 -4.5 C 1.28125 -4.957031 1.269531 -5.328125 1.25 -5.609375 C 1.226562 -5.898438 1.179688 -6.15625 1.109375 -6.375 C 1.035156 -6.59375 0.941406 -6.789062 0.828125 -6.96875 C 0.710938 -7.15625 0.5625 -7.363281 0.375 -7.59375 Z M 2.4375 -9.03125 "/></g></g></g><g fill="#ffffff" fill-opacity="1"><g transform="translate(67.523007, 21.126758)"><g><path d="M 7.1875 0.21875 C 6.863281 -0.09375 6.597656 -0.363281 6.390625 -0.59375 C 6.191406 -0.820312 6.039062 -1.050781 5.9375 -1.28125 C 5.757812 -1.101562 5.570312 -0.925781 5.375 -0.75 C 5.175781 -0.582031 4.957031 -0.421875 4.71875 -0.265625 C 4.488281 -0.117188 4.242188 -0.00390625 3.984375 0.078125 C 3.722656 0.171875 3.445312 0.21875 3.15625 0.21875 C 2.832031 0.21875 2.519531 0.160156 2.21875 0.046875 C 1.914062 -0.0546875 1.644531 -0.25 1.40625 -0.53125 C 1.175781 -0.8125 0.984375 -1.191406 0.828125 -1.671875 C 0.679688 -2.148438 0.609375 -2.769531 0.609375 -3.53125 C 0.609375 -4.445312 0.707031 -5.25 0.90625 -5.9375 C 1.101562 -6.625 1.375 -7.195312 1.71875 -7.65625 C 2.070312 -8.113281 2.492188 -8.457031 2.984375 -8.6875 C 3.472656 -8.914062 4.007812 -9.03125 4.59375 -9.03125 C 4.957031 -9.03125 5.300781 -8.941406 5.625 -8.765625 C 5.613281 -9.710938 5.601562 -10.550781 5.59375 -11.28125 C 5.59375 -12.007812 5.578125 -12.707031 5.546875 -13.375 L 7.953125 -13.578125 C 7.878906 -12.140625 7.835938 -10.628906 7.828125 -9.046875 C 7.816406 -7.472656 7.8125 -5.894531 7.8125 -4.3125 C 7.8125 -3.851562 7.820312 -3.476562 7.84375 -3.1875 C 7.863281 -2.90625 7.910156 -2.65625 7.984375 -2.4375 C 8.054688 -2.21875 8.148438 -2.015625 8.265625 -1.828125 C 8.378906 -1.648438 8.53125 -1.445312 8.71875 -1.21875 Z M 4.390625 -1.8125 C 4.648438 -1.8125 4.882812 -1.851562 5.09375 -1.9375 C 5.300781 -2.03125 5.492188 -2.148438 5.671875 -2.296875 C 5.648438 -2.515625 5.632812 -2.765625 5.625 -3.046875 C 5.625 -3.328125 5.625 -3.65625 5.625 -4.03125 L 5.625 -7.28125 C 5.351562 -7.625 4.988281 -7.796875 4.53125 -7.796875 C 4.007812 -7.796875 3.609375 -7.484375 3.328125 -6.859375 C 3.054688 -6.234375 2.921875 -5.3125 2.921875 -4.09375 C 2.921875 -3.601562 2.957031 -3.210938 3.03125 -2.921875 C 3.101562 -2.628906 3.203125 -2.398438 3.328125 -2.234375 C 3.460938 -2.066406 3.613281 -1.953125 3.78125 -1.890625 C 3.957031 -1.835938 4.160156 -1.8125 4.390625 -1.8125 Z M 4.390625 -1.8125 "/></g></g></g><g fill="#ffffff" fill-opacity="1"><g transform="translate(76.619245, 21.126758)"><g><path d="M 2.90625 -3.984375 C 2.96875 -3.085938 3.148438 -2.457031 3.453125 -2.09375 C 3.753906 -1.738281 4.21875 -1.5625 4.84375 -1.5625 C 5.3125 -1.5625 5.753906 -1.628906 6.171875 -1.765625 C 6.585938 -1.910156 6.929688 -2.046875 7.203125 -2.171875 L 7.203125 -0.703125 C 6.828125 -0.359375 6.359375 -0.117188 5.796875 0.015625 C 5.234375 0.148438 4.6875 0.21875 4.15625 0.21875 C 3.71875 0.21875 3.285156 0.160156 2.859375 0.046875 C 2.441406 -0.0546875 2.066406 -0.253906 1.734375 -0.546875 C 1.398438 -0.847656 1.128906 -1.265625 0.921875 -1.796875 C 0.710938 -2.335938 0.609375 -3.039062 0.609375 -3.90625 C 0.609375 -4.769531 0.710938 -5.519531 0.921875 -6.15625 C 1.140625 -6.800781 1.429688 -7.332031 1.796875 -7.75 C 2.171875 -8.175781 2.609375 -8.492188 3.109375 -8.703125 C 3.609375 -8.921875 4.148438 -9.03125 4.734375 -9.03125 C 5.335938 -9.03125 5.828125 -8.925781 6.203125 -8.71875 C 6.585938 -8.507812 6.890625 -8.242188 7.109375 -7.921875 C 7.328125 -7.609375 7.472656 -7.257812 7.546875 -6.875 C 7.628906 -6.488281 7.671875 -6.113281 7.671875 -5.75 C 7.671875 -5.375 7.644531 -5.03125 7.59375 -4.71875 C 7.539062 -4.414062 7.472656 -4.171875 7.390625 -3.984375 Z M 4.421875 -7.734375 C 3.960938 -7.734375 3.609375 -7.535156 3.359375 -7.140625 C 3.109375 -6.753906 2.957031 -6.132812 2.90625 -5.28125 L 5.8125 -5.28125 C 5.8125 -5.332031 5.8125 -5.390625 5.8125 -5.453125 C 5.820312 -5.523438 5.828125 -5.59375 5.828125 -5.65625 C 5.828125 -5.84375 5.8125 -6.054688 5.78125 -6.296875 C 5.75 -6.535156 5.675781 -6.757812 5.5625 -6.96875 C 5.457031 -7.1875 5.3125 -7.367188 5.125 -7.515625 C 4.945312 -7.660156 4.710938 -7.734375 4.421875 -7.734375 Z M 4.421875 -7.734375 "/></g></g></g><g fill="#ffffff" fill-opacity="1"><g transform="translate(84.834061, 21.126758)"><g/></g></g><g fill="#ffffff" fill-opacity="1"><g transform="translate(88.571285, 21.126758)"><g><path d="M 2.4375 -9.125 C 2.675781 -8.738281 2.863281 -8.398438 3 -8.109375 C 3.144531 -7.828125 3.25 -7.523438 3.3125 -7.203125 C 3.425781 -7.378906 3.570312 -7.570312 3.75 -7.78125 C 3.925781 -7.988281 4.125 -8.179688 4.34375 -8.359375 C 4.570312 -8.546875 4.820312 -8.707031 5.09375 -8.84375 C 5.363281 -8.988281 5.648438 -9.082031 5.953125 -9.125 L 6.109375 -6.625 C 5.535156 -6.625 5 -6.570312 4.5 -6.46875 C 4.007812 -6.375 3.660156 -6.207031 3.453125 -5.96875 C 3.460938 -5.75 3.46875 -5.503906 3.46875 -5.234375 C 3.46875 -4.972656 3.46875 -4.679688 3.46875 -4.359375 C 3.46875 -3.984375 3.472656 -3.578125 3.484375 -3.140625 C 3.492188 -2.710938 3.507812 -2.300781 3.53125 -1.90625 C 3.550781 -1.519531 3.570312 -1.15625 3.59375 -0.8125 C 3.613281 -0.46875 3.640625 -0.195312 3.671875 0 L 1.1875 0 C 1.195312 -0.25 1.207031 -0.535156 1.21875 -0.859375 C 1.226562 -1.191406 1.238281 -1.535156 1.25 -1.890625 C 1.257812 -2.242188 1.265625 -2.601562 1.265625 -2.96875 C 1.273438 -3.34375 1.28125 -3.695312 1.28125 -4.03125 C 1.28125 -4.570312 1.269531 -5.015625 1.25 -5.359375 C 1.226562 -5.710938 1.179688 -6.015625 1.109375 -6.265625 C 1.035156 -6.515625 0.941406 -6.742188 0.828125 -6.953125 C 0.710938 -7.171875 0.5625 -7.421875 0.375 -7.703125 Z M 2.4375 -9.125 "/></g></g></g><g fill="#ffffff" fill-opacity="1"><g transform="translate(94.970388, 21.126758)"><g><path d="M 4.59375 -7.578125 C 4.039062 -7.578125 3.617188 -7.285156 3.328125 -6.703125 C 3.035156 -6.117188 2.890625 -5.320312 2.890625 -4.3125 C 2.890625 -3.332031 3.007812 -2.566406 3.25 -2.015625 C 3.488281 -1.472656 3.910156 -1.203125 4.515625 -1.203125 C 5.066406 -1.203125 5.492188 -1.503906 5.796875 -2.109375 C 6.097656 -2.710938 6.25 -3.519531 6.25 -4.53125 C 6.25 -5 6.222656 -5.421875 6.171875 -5.796875 C 6.128906 -6.171875 6.046875 -6.488281 5.921875 -6.75 C 5.804688 -7.019531 5.640625 -7.222656 5.421875 -7.359375 C 5.203125 -7.503906 4.925781 -7.578125 4.59375 -7.578125 Z M 0.578125 -4.265625 C 0.578125 -4.992188 0.675781 -5.648438 0.875 -6.234375 C 1.082031 -6.828125 1.363281 -7.328125 1.71875 -7.734375 C 2.070312 -8.148438 2.507812 -8.46875 3.03125 -8.6875 C 3.550781 -8.914062 4.128906 -9.03125 4.765625 -9.03125 C 5.960938 -9.03125 6.890625 -8.644531 7.546875 -7.875 C 8.210938 -7.113281 8.546875 -6.046875 8.546875 -4.671875 C 8.546875 -3.929688 8.445312 -3.257812 8.25 -2.65625 C 8.050781 -2.0625 7.769531 -1.546875 7.40625 -1.109375 C 7.039062 -0.679688 6.601562 -0.351562 6.09375 -0.125 C 5.582031 0.101562 5.015625 0.21875 4.390625 0.21875 C 3.796875 0.21875 3.265625 0.113281 2.796875 -0.09375 C 2.328125 -0.3125 1.925781 -0.613281 1.59375 -1 C 1.269531 -1.394531 1.019531 -1.867188 0.84375 -2.421875 C 0.664062 -2.972656 0.578125 -3.585938 0.578125 -4.265625 Z M 0.578125 -4.265625 "/></g></g></g><g fill="#ffffff" fill-opacity="1"><g transform="translate(104.119515, 21.126758)"><g><path d="M 0.265625 -8.671875 C 0.648438 -8.691406 0.96875 -8.757812 1.21875 -8.875 C 1.46875 -8.988281 1.671875 -9.148438 1.828125 -9.359375 C 1.984375 -9.578125 2.113281 -9.863281 2.21875 -10.21875 C 2.320312 -10.570312 2.425781 -10.992188 2.53125 -11.484375 L 4.171875 -11.96875 C 4.066406 -11.320312 3.984375 -10.75 3.921875 -10.25 C 3.867188 -9.757812 3.816406 -9.28125 3.765625 -8.8125 L 5.671875 -8.8125 L 5.515625 -7.3125 L 3.6875 -7.4375 C 3.632812 -6.726562 3.597656 -6.078125 3.578125 -5.484375 C 3.566406 -4.890625 3.5625 -4.382812 3.5625 -3.96875 C 3.5625 -3.488281 3.570312 -3.101562 3.59375 -2.8125 C 3.625 -2.519531 3.671875 -2.296875 3.734375 -2.140625 C 3.804688 -1.984375 3.894531 -1.878906 4 -1.828125 C 4.113281 -1.773438 4.257812 -1.75 4.4375 -1.75 C 4.675781 -1.75 4.90625 -1.78125 5.125 -1.84375 C 5.351562 -1.90625 5.539062 -1.984375 5.6875 -2.078125 L 5.421875 -0.25 C 5.140625 -0.09375 4.875 0.0195312 4.625 0.09375 C 4.382812 0.175781 4.09375 0.21875 3.75 0.21875 C 3.363281 0.21875 3.023438 0.15625 2.734375 0.03125 C 2.441406 -0.0820312 2.195312 -0.273438 2 -0.546875 C 1.800781 -0.828125 1.65625 -1.1875 1.5625 -1.625 C 1.46875 -2.070312 1.421875 -2.613281 1.421875 -3.25 C 1.421875 -3.769531 1.445312 -4.410156 1.5 -5.171875 C 1.5625 -5.941406 1.617188 -6.738281 1.671875 -7.5625 L 0.390625 -7.5625 Z M 0.265625 -8.671875 "/></g></g></g><g fill="#ffffff" fill-opacity="1"><g transform="translate(110.201297, 21.126758)"><g><path d="M 2.90625 0.21875 C 2.164062 0.21875 1.566406 -0.03125 1.109375 -0.53125 C 0.660156 -1.039062 0.4375 -1.703125 0.4375 -2.515625 C 0.4375 -3.367188 0.679688 -4.046875 1.171875 -4.546875 C 1.671875 -5.054688 2.332031 -5.3125 3.15625 -5.3125 C 3.5 -5.3125 3.835938 -5.257812 4.171875 -5.15625 C 4.515625 -5.0625 4.820312 -4.929688 5.09375 -4.765625 L 5.09375 -5.75 C 5.09375 -6.300781 4.984375 -6.6875 4.765625 -6.90625 C 4.554688 -7.132812 4.195312 -7.25 3.6875 -7.25 C 3.332031 -7.25 2.957031 -7.203125 2.5625 -7.109375 C 2.164062 -7.023438 1.851562 -6.914062 1.625 -6.78125 L 1.078125 -8.484375 C 1.253906 -8.546875 1.460938 -8.613281 1.703125 -8.6875 C 1.953125 -8.757812 2.21875 -8.816406 2.5 -8.859375 C 2.78125 -8.910156 3.066406 -8.953125 3.359375 -8.984375 C 3.660156 -9.015625 3.929688 -9.03125 4.171875 -9.03125 C 6.242188 -9.03125 7.28125 -8.019531 7.28125 -6 C 7.28125 -5.820312 7.269531 -5.5625 7.25 -5.21875 C 7.226562 -4.875 7.207031 -4.515625 7.1875 -4.140625 C 7.175781 -3.773438 7.160156 -3.429688 7.140625 -3.109375 C 7.128906 -2.796875 7.125 -2.578125 7.125 -2.453125 C 7.125 -2.179688 7.164062 -1.984375 7.25 -1.859375 C 7.332031 -1.742188 7.484375 -1.6875 7.703125 -1.6875 C 7.859375 -1.6875 8.035156 -1.710938 8.234375 -1.765625 L 7.953125 -0.078125 C 7.765625 -0.015625 7.585938 0.03125 7.421875 0.0625 C 7.265625 0.101562 7.101562 0.125 6.9375 0.125 C 6.507812 0.125 6.144531 0.00390625 5.84375 -0.234375 C 5.550781 -0.472656 5.378906 -0.816406 5.328125 -1.265625 C 5.085938 -0.804688 4.753906 -0.441406 4.328125 -0.171875 C 3.910156 0.0859375 3.4375 0.21875 2.90625 0.21875 Z M 3.75 -1.40625 C 4.125 -1.40625 4.441406 -1.539062 4.703125 -1.8125 C 4.972656 -2.082031 5.109375 -2.425781 5.109375 -2.84375 C 5.109375 -3.1875 5.003906 -3.460938 4.796875 -3.671875 C 4.585938 -3.890625 4.289062 -4 3.90625 -4 C 3.519531 -4 3.210938 -3.878906 2.984375 -3.640625 C 2.765625 -3.410156 2.65625 -3.085938 2.65625 -2.671875 C 2.65625 -2.285156 2.753906 -1.976562 2.953125 -1.75 C 3.148438 -1.519531 3.414062 -1.40625 3.75 -1.40625 Z M 3.75 -1.40625 "/></g></g></g></svg>